<svg width="190" height="48" viewBox="0 0 190 48" fill="none" xmlns="http://www.w3.org/2000/svg">
<path d="M3.19602 9.90909H8.52273L17.7841 32.5227H18.125L27.3864 9.90909H32.7131V39H28.5369V17.9489H28.267L19.6875 38.9574H16.2216L7.64205 17.9347H7.37216V39H3.19602V9.90909ZM48.157 39.4403C46.0073 39.4403 44.156 38.9811 42.603 38.0625C41.0594 37.1345 39.8662 35.8324 39.0234 34.1562C38.1901 32.4706 37.7734 30.4962 37.7734 28.233C37.7734 25.9981 38.1901 24.0284 39.0234 22.3239C39.8662 20.6193 41.0405 19.2888 42.5462 18.3324C44.0613 17.3759 45.8321 16.8977 47.8587 16.8977C49.0897 16.8977 50.2829 17.1013 51.4382 17.5085C52.5935 17.9157 53.6304 18.5549 54.549 19.4261C55.4676 20.2973 56.192 21.429 56.7223 22.821C57.2526 24.2036 57.5178 25.8845 57.5178 27.8636V29.3693H40.174V26.1875H53.3558C53.3558 25.0701 53.1286 24.0805 52.674 23.2188C52.2195 22.3475 51.5803 21.661 50.7564 21.1591C49.942 20.6572 48.9856 20.4062 47.8871 20.4062C46.6939 20.4062 45.6522 20.6998 44.7621 21.2869C43.8814 21.8646 43.1996 22.6222 42.7166 23.5597C42.2431 24.4877 42.0064 25.4962 42.0064 26.5852V29.071C42.0064 30.5294 42.2621 31.7699 42.7734 32.7926C43.2943 33.8153 44.0187 34.5966 44.9467 35.1364C45.8748 35.6667 46.959 35.9318 48.1996 35.9318C49.0045 35.9318 49.7384 35.8182 50.4013 35.5909C51.0642 35.3542 51.6371 35.0038 52.12 34.5398C52.603 34.0758 52.9723 33.5028 53.228 32.821L57.2479 33.5455C56.9259 34.7292 56.3482 35.7661 55.5149 36.6562C54.6911 37.5369 53.6541 38.2235 52.4041 38.7159C51.1636 39.1989 49.7479 39.4403 48.157 39.4403ZM62.2301 39V17.1818H66.3068V20.733H66.5767C67.0313 19.5303 67.7746 18.5928 68.8068 17.9205C69.839 17.2386 71.0748 16.8977 72.5142 16.8977C73.9725 16.8977 75.1941 17.2386 76.179 17.9205C77.1733 18.6023 77.9072 19.5398 78.3807 20.733H78.608C79.1288 19.5682 79.9574 18.6402 81.0938 17.9489C82.2301 17.2481 83.5843 16.8977 85.1562 16.8977C87.1354 16.8977 88.75 17.518 90 18.7585C91.2595 19.9991 91.8892 21.8693 91.8892 24.3693V39H87.642V24.767C87.642 23.2898 87.2396 22.2197 86.4347 21.5568C85.6297 20.8939 84.6686 20.5625 83.5511 20.5625C82.1686 20.5625 81.0938 20.9886 80.3267 21.8409C79.5597 22.6837 79.1761 23.768 79.1761 25.0938V39H74.9432V24.4972C74.9432 23.3134 74.5739 22.3617 73.8352 21.642C73.0966 20.9223 72.1354 20.5625 70.9517 20.5625C70.1468 20.5625 69.4034 20.7756 68.7216 21.2017C68.0492 21.6184 67.5047 22.2008 67.0881 22.9489C66.6809 23.697 66.4773 24.5634 66.4773 25.5483V39H62.2301ZM129.339 39V17.1818H133.445V20.6477H133.672C134.07 19.4735 134.77 18.5502 135.774 17.8778C136.787 17.196 137.933 16.8551 139.212 16.8551C139.477 16.8551 139.789 16.8646 140.149 16.8835C140.518 16.9025 140.807 16.9261 141.016 16.9545V21.017C140.845 20.9697 140.542 20.9176 140.107 20.8608C139.671 20.7945 139.235 20.7614 138.8 20.7614C137.796 20.7614 136.901 20.9744 136.115 21.4006C135.339 21.8172 134.723 22.3996 134.268 23.1477C133.814 23.8864 133.587 24.7292 133.587 25.6761V39H129.339ZM144.691 39V17.1818H148.938V39H144.691ZM146.836 13.8153C146.097 13.8153 145.463 13.5691 144.933 13.0767C144.412 12.5748 144.151 11.9782 144.151 11.2869C144.151 10.5862 144.412 9.98958 144.933 9.49716C145.463 8.99526 146.097 8.74432 146.836 8.74432C147.575 8.74432 148.204 8.99526 148.725 9.49716C149.255 9.98958 149.521 10.5862 149.521 11.2869C149.521 11.9782 149.255 12.5748 148.725 13.0767C148.204 13.5691 147.575 13.8153 146.836 13.8153ZM165.036 17.1818V20.5909H152.706V17.1818H165.036ZM156.087 39V14.6534C156.087 13.2898 156.385 12.1581 156.982 11.2585C157.578 10.3494 158.369 9.67235 159.354 9.22727C160.339 8.77273 161.409 8.54545 162.564 8.54545C163.416 8.54545 164.145 8.61648 164.751 8.75852C165.357 8.8911 165.807 9.0142 166.101 9.12784L165.107 12.5653C164.908 12.5085 164.652 12.4422 164.339 12.3665C164.027 12.2812 163.648 12.2386 163.203 12.2386C162.171 12.2386 161.432 12.4943 160.987 13.0057C160.552 13.517 160.334 14.2557 160.334 15.2216V39H156.087ZM172.102 47.1818C171.468 47.1818 170.89 47.1297 170.369 47.0256C169.848 46.9309 169.46 46.8267 169.205 46.7131L170.227 43.233C171.004 43.4413 171.695 43.5313 172.301 43.5028C172.907 43.4744 173.442 43.2472 173.906 42.821C174.38 42.3949 174.796 41.6989 175.156 40.733L175.682 39.2841L167.699 17.1818H172.244L177.77 34.1136H177.997L183.523 17.1818H188.082L179.091 41.9119C178.674 43.0483 178.144 44.0095 177.5 44.7955C176.856 45.5909 176.089 46.1875 175.199 46.5852C174.309 46.983 173.277 47.1818 172.102 47.1818Z" fill="currentColor"/>
<path fill-rule="evenodd" clip-rule="evenodd" d="M111.254 15.2362C111.097 15.1435 110.902 15.1435 110.746 15.2362L99.0123 22.1695C98.86 22.2595 98.7666 22.4232 98.7666 22.6C98.7666 22.7768 98.86 22.9405 99.0123 23.0305L110.746 29.9638C110.902 30.0565 111.097 30.0565 111.254 29.9638L122.988 23.0305C123.14 22.9405 123.233 22.7768 123.233 22.6C123.233 22.4232 123.14 22.2595 122.988 22.1695L111.254 15.2362ZM111 28.9526L100.249 22.6L111 16.2474L121.75 22.6L111 28.9526ZM98.8362 29.279C98.9766 29.0412 99.2833 28.9624 99.521 29.1029L111 35.8859L122.479 29.1029C122.717 28.9624 123.023 29.0412 123.164 29.279C123.304 29.5167 123.225 29.8233 122.988 29.9638L111.254 36.8971C111.097 36.9898 110.902 36.9898 110.746 36.8971L99.0123 29.9638C98.7745 29.8233 98.6957 29.5167 98.8362 29.279ZM98.8362 35.679C98.9766 35.4412 99.2832 35.3624 99.521 35.5029L111 42.2859L122.479 35.5029C122.717 35.3624 123.023 35.4412 123.164 35.679C123.304 35.9167 123.225 36.2233 122.988 36.3638L111.254 43.2971C111.097 43.3898 110.902 43.3898 110.746 43.2971L99.0123 36.3638C98.7745 36.2233 98.6957 35.9167 98.8362 35.679Z" fill="currentColor"/>
</svg>
